<?xml version="1.0" encoding="utf-8"?>
<!-- Generator: Adobe Illustrator 19.2.0, SVG Export Plug-In . SVG Version: 6.00 Build 0)  -->
<svg version="1.1" id="Layer_1" xmlns="http://www.w3.org/2000/svg" xmlns:xlink="http://www.w3.org/1999/xlink" x="0px" y="0px"
	 width="846" height="261" viewBox="117 266 846 261" style="enable-background:new 117 266 846 261;" xml:space="preserve">
<style type="text/css">
	.st0{fill:#ADDFEB;}
	.st1{fill:#FFFFFF;}
	.st2{display:none;fill:#00446A;}
	.st3{fill:#D42839;}
	.st4{fill:#E35266;}
	.st5{display:none;}
	.st6{display:inline;fill:#88A9B3;}
	.st7{display:inline;fill:#FFFFFF;}
	.st8{display:inline;fill:#E1E1E1;}
	.st9{display:inline;fill:#EBEBEB;}
	.st10{display:inline;}
	.st11{fill:#898989;}
	.st12{display:none;fill:#6EA8B7;}
	.st13{display:none;opacity:0.4;fill:#00446A;enable-background:new    ;}
	.st14{display:inline;fill:#A9CBD3;}
	.st15{opacity:0.5;}
	.st16{fill:#211F1F;}
</style>
<g id="Guides">
</g>
<g id="Elements">
	<polygon class="st0" points="362.5,273.5 355,266 354,267 361.5,274.5 354,282 355,283 362.5,275.5 370,283 371,282 363.5,274.5 
		371,267 370,266 	"/>
	<polygon class="st1" points="325.5,273.5 318,266 317,267 324.5,274.5 317,282 318,283 325.5,275.5 333,283 334,282 326.5,274.5 
		334,267 333,266 	"/>
	<polygon class="st0" points="398,272.2 391.8,266 391,266.8 397.2,273 391,279.2 391.8,280 398,273.8 404.2,280 405,279.2 
		398.8,273 405,266.8 404.2,266 	"/>
	<polygon class="st0" points="399,304 398,303 368,333 368,334 398,364 399,363 369.5,333.5 	"/>
	<polygon class="st1" points="348,304 347,303 317,333 317,334 347,364 348,363 318.5,333.5 	"/>
	<polygon class="st0" points="449,305.9 448.1,305 420,333 420,334 448.1,362 449,361.1 421.4,333.5 	"/>
	<polygon class="st0" points="420,442.1 420.9,443 449,415 449,414 420.9,386 420,386.9 447.6,414.5 	"/>
	<polygon class="st0" points="368,444 369,445 399,415 399,414 369,384 368,385 397.5,414.5 	"/>
	<polygon class="st1" points="317,444 318,445 348,415 348,414 318,384 317,385 346.5,414.5 	"/>
	<polygon class="st1" points="327.5,465.5 327,465 317,475 327,485 327.5,484.5 318,475 	"/>
	<path d="M722,282c-0.4-1.8-1-3.3-1.8-4.7c-0.6-1-1.3-2-1.9-3c-0.2-0.3-0.4-0.7-0.6-1c-0.4-0.7-0.7-1.5-0.7-2.5s0.3-1.8,0.7-2.5
		c0.7-1.1,1.9-2,3.5-2.2c1.3-0.2,2.5,0.1,3.4,0.6c0.7,0.4,1.2,0.9,1.7,1.6c0.4,0.7,0.7,1.5,0.8,2.5c0,0.5-0.1,1-0.2,1.4
		c-0.1,0.4-0.3,0.8-0.5,1.1c-0.3,0.7-0.8,1.4-1.2,2C723.8,277.3,722.5,279.3,722,282"/>
	<path d="M517,266h4v4h-4V266z M522,270h4v-4h-4V270z M527,270h4v-4h-4V270z M532,270h4v-4h-4V270z M517,277h4v-4h-4V277z M522,277
		h4v-4h-4V277z M527,277h4v-4h-4V277z M532,277h4v-4h-4V277z M517,284h4v-4h-4V284z M522,284h4v-4h-4V284z M527,284h4v-4h-4V284z
		 M532,284h4v-4h-4V284z"/>
	<path d="M517,304h4v4h-4V304z M517,315h4v-4h-4V315z M517,322h4v-4h-4V322z M523,308h14v-4h-14V308z M523,315h14v-4h-14V315z
		 M523,322h14v-4h-14V322z"/>
	<path class="st0" d="M557,304h4v4h-4V304z M557,315h4v-4h-4V315z M557,322h4v-4h-4V322z M563,308h14v-4h-14V308z M563,315h14v-4
		h-14V315z M563,322h14v-4h-14V322z"/>
	<path class="st0" d="M557,266h4v4h-4V266z M562,270h4v-4h-4V270z M567,270h4v-4h-4V270z M572,270h4v-4h-4V270z M557,277h4v-4h-4
		V277z M562,277h4v-4h-4V277z M567,277h4v-4h-4V277z M572,277h4v-4h-4V277z M557,284h4v-4h-4V284z M562,284h4v-4h-4V284z M567,284h4
		v-4h-4V284z M572,284h4v-4h-4V284z"/>
	<path d="M521,349h3v3h-3V349z M525,352h3v-3h-3V352z M529,352h3v-3h-3V352z M521,357h3v-3h-3V357z M525,357h3v-3h-3V357z M537,342
		v5v8v5v2h-2h-4h-12h-2v-2v-13v-5h2h16H537z M531,355h4v-8h-16v13h12V355z M535.8,356H532v4.5L535.8,356z"/>
	<path class="st0" d="M561,349h3v3h-3V349z M565,352h3v-3h-3V352z M569,352h3v-3h-3V352z M561,357h3v-3h-3V357z M565,357h3v-3h-3
		V357z M577,342v5v8v5v2h-2h-4h-12h-2v-2v-13v-5h2h16H577z M571,355h4v-8h-16v13h12V355z M575.8,356H572v4.5L575.8,356z"/>
	<path d="M522,395h10v1h-10V395z M522,398h8v-1h-8V398z M537,386v10h-2v4v2h-2h-12h-2v-2v-4h-2v-10h2v-2v-2h2h12h2v2v2H537z
		 M533,394h-12v2v4h12v-4V394z M533,384h-12v2h12V384z M536,388h-1v1h1V388z"/>
	<path class="st0" d="M562,395h10v1h-10V395z M562,398h8v-1h-8V398z M577,386v10h-2v4v2h-2h-12h-2v-2v-4h-2v-10h2v-2v-2h2h12h2v2v2
		H577z M573,394h-12v2v4h12v-4V394z M573,384h-12v2h12V384z M576,388h-1v1h1V388z"/>
	<g>
		<path d="M517,442h20v-20h-20V442z M522,439c-1.1,0-2-0.9-2-2s0.9-2,2-2s2,0.9,2,2S523.1,439,522,439 M527,439c0-3.9-3.1-7-7-7
			v-2.5c5.2,0,9.5,4.3,9.5,9.5H527z M531.5,439c0-6.4-5.1-11.5-11.5-11.5V425c7.7,0,14,6.3,14,14H531.5z"/>
	</g>
	<g>
		<path class="st0" d="M557,442h20v-20h-20V442z M562,439c-1.1,0-2-0.9-2-2s0.9-2,2-2s2,0.9,2,2S563.1,439,562,439 M567,439
			c0-3.9-3.1-7-7-7v-2.5c5.2,0,9.5,4.3,9.5,9.5H567z M571.5,439c0-6.4-5.1-11.5-11.5-11.5V425c7.7,0,14,6.3,14,14H571.5z"/>
	</g>
	<polygon class="st2" points="122,266 122,276 117,271 	"/>
	<polygon class="st2" points="142,276 142,266 147,271 	"/>
	<polygon class="st1" points="958.6,267.6 958.6,270.9 961.9,270.9 961.9,280.4 952,280.4 952,267.6 	"/>
	<polygon class="st1" points="925.6,267.6 925.6,270.9 929,270.9 929,280.4 919,280.4 919,267.6 	"/>
	<path id="pdf-file-4-icon" class="st3" d="M925.1,267.6v3.3h3.3v9.6h-9.9v-12.9H925.1z M926.1,266H917v16h13v-12.1L926.1,266z
		 M921.7,277.4c-0.2,0.1-0.5,0.3-0.6,0.4c-0.2,0.3-0.1,0.5,0.2,0.2C921.4,277.9,921.6,277.6,921.7,277.4z M925.2,276.5
		c0.2,0.1,0.4,0.3,0.7,0.3s0.3-0.2-0.1-0.3C925.7,276.4,925.5,276.4,925.2,276.5z M922.9,276.4c0.3-0.1,0.8-0.2,1-0.2
		c0,0-0.4-0.4-0.5-0.7C923.2,275.7,922.9,276.3,922.9,276.4z M923.2,273.2c0,0.2,0,0.6,0.1,0.8c0.1-0.2,0.2-0.6,0.2-0.9
		C923.4,273,923.2,273,923.2,273.2z M920.8,277.4c0.3-0.3,0.7-0.5,1.4-0.8c0.3-0.6,0.6-1.2,0.8-1.8c-0.2-0.4-0.3-0.8-0.4-1.3
		c-0.2-1.6,1.6-1.5,1.4,0c-0.1,0.3-0.2,0.7-0.4,1.2c0.3,0.5,0.7,0.9,1,1.2c0.4-0.1,1-0.1,1.4-0.1c1.1,0.2,1,1.4,0,1.4
		c-0.5,0-1.2-0.4-1.6-0.7c-0.6,0.1-1.3,0.3-1.8,0.5c-0.2,0.3-0.4,0.8-0.6,1.1C921,279.5,919.8,278.3,920.8,277.4z"/>
	<path id="pdf-file-4-icon_1_" class="st4" d="M958.1,267.6v3.3h3.3v9.6h-9.9v-12.9H958.1z M959.1,266H950v16h13v-12.1L959.1,266z
		 M953.8,277.4c0.3-0.3,0.7-0.5,1.4-0.8c0.3-0.6,0.6-1.2,0.8-1.8c-0.2-0.4-0.3-0.8-0.4-1.3c-0.2-1.6,1.6-1.5,1.4,0
		c-0.1,0.3-0.2,0.7-0.4,1.2c0.3,0.5,0.7,0.9,1,1.2c0.4-0.1,1-0.1,1.4-0.1c1.1,0.2,1,1.4,0,1.4c-0.5,0-1.2-0.4-1.6-0.7
		c-0.6,0.1-1.3,0.3-1.8,0.5c-0.2,0.3-0.4,0.8-0.6,1.1C954,279.5,952.8,278.3,953.8,277.4z M954.7,277.4c-0.2,0.1-0.5,0.3-0.6,0.4
		c-0.2,0.3-0.1,0.5,0.2,0.2C954.4,277.9,954.6,277.6,954.7,277.4z M958.2,276.5c0.2,0.1,0.4,0.3,0.7,0.3s0.3-0.2-0.1-0.3
		C958.7,276.4,958.5,276.4,958.2,276.5z M955.9,276.4c0.3-0.1,0.8-0.2,1-0.2c0,0-0.4-0.4-0.5-0.7
		C956.2,275.7,955.9,276.3,955.9,276.4z M956.2,273.2c0,0.2,0,0.6,0.1,0.8c0.1-0.2,0.2-0.6,0.2-0.9C956.4,273,956.2,273,956.2,273.2
		z"/>
	<polygon class="st0" points="358.5,465.5 358,465 348,475 358,485 358.5,484.5 349,475 	"/>
	<polygon class="st0" points="389,467.4 388.6,467 380,475.5 388.6,484 389,483.6 380.9,475.5 	"/>
	<polygon class="st0" points="380,524.6 380.4,525 389,516.5 380.4,508 380,508.4 388.1,516.5 	"/>
	<polygon class="st0" points="348,525.5 348.5,526 358.5,516 348.5,506 348,506.5 357.5,516 	"/>
	<polygon class="st1" points="317,525.5 317.5,526 327.5,516 317.5,506 317,506.5 326.5,516 	"/>
	<g class="st5">
		<rect x="117" y="356" class="st6" width="13" height="3"/>
		<rect x="118" y="357" class="st7" width="2" height="1"/>
		<rect x="117" y="360" class="st8" width="13" height="9"/>
		<rect x="118" y="361" class="st7" width="11" height="7"/>
		<path class="st9" d="M129,363v-1h-1v-1h-1v1h-1v-1h-1v1h-1v-1h-1v1h-1v-1h-1v1h-1v-1h-1v1h-1v1h1v1h-1v1h1v1h-1v1h1v1h1v-1h1v1h1
			v-1h1v1h1v-1h1v1h1v-1h1v1h1v-1h1v-1h-1v-1h1v-1h-1v-1H129z M125,363v1h-1v-1H125z M123,363v1h-1v-1H123z M120,363h1v1h-1V363z
			 M120,366v-1h1v1H120z M122,366v-1h1v1H122z M124,366v-1h1v1H124z M127,366h-1v-1h1V366z M127,364h-1v-1h1V364z"/>
		<g class="st10">
			<rect x="119" y="362" class="st11" width="1" height="1"/>
			<rect x="121" y="362" class="st11" width="1" height="1"/>
			<rect x="123" y="362" class="st11" width="1" height="1"/>
			<rect x="125" y="362" class="st11" width="1" height="1"/>
			<rect x="127" y="362" class="st11" width="1" height="1"/>
			<rect x="127" y="364" class="st11" width="1" height="1"/>
			<rect x="127" y="366" class="st11" width="1" height="1"/>
			<rect x="125" y="366" class="st11" width="1" height="1"/>
			<rect x="125" y="364" class="st11" width="1" height="1"/>
			<rect x="123" y="364" class="st11" width="1" height="1"/>
			<rect x="123" y="366" class="st11" width="1" height="1"/>
			<rect x="121" y="366" class="st11" width="1" height="1"/>
			<rect x="121" y="364" class="st11" width="1" height="1"/>
			<rect x="119" y="364" class="st11" width="1" height="1"/>
			<rect x="119" y="366" class="st11" width="1" height="1"/>
		</g>
	</g>
	<polygon class="st12" points="122,296 122,306 117,301 	"/>
	<polygon class="st12" points="142,306 142,296 147,301 	"/>
	<polygon class="st13" points="122,326 122,336 117,331 	"/>
	<polygon class="st13" points="142,336 142,326 147,331 	"/>
	<g class="st5">
		<rect x="150" y="356" class="st14" width="13" height="3"/>
		<rect x="151" y="357" class="st7" width="2" height="1"/>
		<rect x="150" y="360" class="st8" width="13" height="9"/>
		<rect x="151" y="361" class="st7" width="11" height="7"/>
		<path class="st9" d="M162,363v-1h-1v-1h-1v1h-1v-1h-1v1h-1v-1h-1v1h-1v-1h-1v1h-1v-1h-1v1h-1v1h1v1h-1v1h1v1h-1v1h1v1h1v-1h1v1h1
			v-1h1v1h1v-1h1v1h1v-1h1v1h1v-1h1v-1h-1v-1h1v-1h-1v-1H162z M158,363v1h-1v-1H158z M156,363v1h-1v-1H156z M153,363h1v1h-1V363z
			 M153,366v-1h1v1H153z M155,366v-1h1v1H155z M157,366v-1h1v1H157z M160,366h-1v-1h1V366z M160,364h-1v-1h1V364z"/>
		<g class="st10">
			<rect x="152" y="362" class="st11" width="1" height="1"/>
			<rect x="154" y="362" class="st11" width="1" height="1"/>
			<rect x="156" y="362" class="st11" width="1" height="1"/>
			<rect x="158" y="362" class="st11" width="1" height="1"/>
			<rect x="160" y="362" class="st11" width="1" height="1"/>
			<rect x="160" y="364" class="st11" width="1" height="1"/>
			<rect x="160" y="366" class="st11" width="1" height="1"/>
			<rect x="158" y="366" class="st11" width="1" height="1"/>
			<rect x="158" y="364" class="st11" width="1" height="1"/>
			<rect x="156" y="364" class="st11" width="1" height="1"/>
			<rect x="156" y="366" class="st11" width="1" height="1"/>
			<rect x="154" y="366" class="st11" width="1" height="1"/>
			<rect x="154" y="364" class="st11" width="1" height="1"/>
			<rect x="152" y="364" class="st11" width="1" height="1"/>
			<rect x="152" y="366" class="st11" width="1" height="1"/>
		</g>
	</g>
	<path class="st0" d="M752,282c-0.4-1.8-1-3.3-1.8-4.7c-0.6-1-1.3-2-1.9-3c-0.2-0.3-0.4-0.7-0.6-1c-0.4-0.7-0.7-1.5-0.7-2.5
		s0.3-1.8,0.7-2.5c0.7-1.1,1.9-2,3.5-2.2c1.3-0.2,2.5,0.1,3.4,0.6c0.7,0.4,1.2,0.9,1.7,1.6c0.4,0.7,0.7,1.5,0.8,2.5
		c0,0.5-0.1,1-0.2,1.4c-0.1,0.4-0.3,0.8-0.5,1.1c-0.3,0.7-0.8,1.4-1.2,2C753.8,277.3,752.5,279.3,752,282"/>
	<path d="M128.8,377.6v1.6h-2.5v-1.6h-4.5v1.6h-2.5v-1.6h-0.7c-0.4,0-0.8,0.2-1.1,0.5s-0.5,0.7-0.5,1.1v9.3c0,0.4,0.2,0.8,0.5,1.1
		c0.3,0.3,0.7,0.5,1.1,0.5h10.9c0.4,0,0.8-0.2,1.1-0.5c0.3-0.3,0.5-0.7,0.5-1.1v-9.3c0-0.4-0.2-0.8-0.5-1.1
		c-0.3-0.3-0.7-0.5-1.1-0.5H128.8z M129.4,388.4h-10.8v-6.2h10.9L129.4,388.4L129.4,388.4z M121,376h-1v2.6h1V376z M128,376h-1v2.6
		h1V376z"/>
	<path class="st0" d="M158.8,377.6v1.6h-2.5v-1.6h-4.5v1.6h-2.5v-1.6h-0.7c-0.4,0-0.8,0.2-1.1,0.5c-0.3,0.3-0.5,0.7-0.5,1.1v9.3
		c0,0.4,0.2,0.8,0.5,1.1c0.3,0.3,0.7,0.5,1.1,0.5h10.9c0.4,0,0.8-0.2,1.1-0.5c0.3-0.3,0.5-0.7,0.5-1.1v-9.3c0-0.4-0.1-0.8-0.5-1.1
		c-0.3-0.3-0.7-0.5-1.1-0.5H158.8z M159.4,388.4h-10.8v-6.2h10.9L159.4,388.4L159.4,388.4z M151,376h-1v2.6h1V376z M158,376h-1v2.6
		h1V376z"/>
	<path d="M141.1,274.4c-0.1,0.1-0.1,0.1-0.1,0.2s0,0.2,0.1,0.3c0.1,0.1,0.2,0.1,0.3,0.1s0.2,0,0.3-0.1l4.3-4.1c0-0.1,0-0.2,0-0.3
		s0-0.2-0.1-0.3l-4.3-4.1c0-0.1-0.1-0.1-0.2-0.1s-0.2,0-0.3,0.1s-0.1,0.2-0.1,0.3s0,0.2,0.1,0.3l3.9,3.8L141.1,274.4z"/>
	<path d="M121.9,274.4c0.1,0.1,0.1,0.1,0.1,0.2s0,0.2-0.1,0.3c-0.1,0.1-0.2,0.1-0.3,0.1c-0.1,0-0.2,0-0.2-0.1l-4.3-4.1
		c-0.1-0.1-0.1-0.2-0.1-0.3s0-0.2,0.1-0.3l4.3-4.1c0-0.1,0.1-0.1,0.2-0.1c0.1,0,0.2,0,0.3,0.1s0.1,0.2,0.1,0.3s0,0.2-0.1,0.3
		l-3.9,3.8L121.9,274.4z"/>
	<path class="st0" d="M141.1,304.4c-0.1,0.1-0.1,0.1-0.1,0.2s0,0.2,0.1,0.3c0.1,0.1,0.2,0.1,0.3,0.1s0.2,0,0.3-0.1l4.3-4.1
		c0.1-0.1,0.1-0.2,0.1-0.3s0-0.2-0.1-0.3l-4.3-4.1c-0.1-0.1-0.2-0.1-0.3-0.1s-0.2,0-0.3,0.1s-0.1,0.2-0.1,0.3s0,0.2,0.1,0.3l3.9,3.9
		L141.1,304.4z"/>
	<path class="st0" d="M121.9,304.4c0.1,0.1,0.1,0.1,0.1,0.2s0,0.2-0.1,0.3c-0.1,0.1-0.2,0.1-0.3,0.1c-0.1,0-0.2,0-0.3-0.1l-4.3-4.1
		c0-0.1,0-0.2,0-0.3s0-0.2,0.1-0.3l4.3-4.1c0-0.1,0.1-0.1,0.2-0.1c0.1,0,0.2,0,0.3,0.1s0.1,0.2,0.1,0.3s0,0.2-0.1,0.3l-3.9,3.8
		L121.9,304.4z"/>
	<path class="st15" d="M141.1,334.9c-0.1,0.1-0.1,0.1-0.1,0.2s0,0.2,0.1,0.3c0.1,0.1,0.2,0.1,0.3,0.1s0.2,0,0.3-0.1l4.3-4.1
		c0-0.1,0-0.2,0-0.3s0-0.2-0.1-0.3l-4.3-4.1c-0.1-0.1-0.2-0.1-0.3-0.1c-0.1,0-0.2,0-0.3,0.1c0,0.1,0,0.2,0,0.3s0,0.2,0.1,0.3
		l3.9,3.8L141.1,334.9z"/>
	<path class="st15" d="M121.9,334.4c0.1,0.1,0.1,0.1,0.1,0.2s0,0.2-0.1,0.3c-0.1,0.1-0.2,0.1-0.3,0.1c-0.1,0-0.2,0-0.3-0.1l-4.3-4.1
		c0-0.1,0-0.2,0-0.3s0-0.2,0.1-0.3l4.3-4.1c0-0.1,0.1-0.1,0.2-0.1c0.1,0,0.2,0,0.3,0.1s0.1,0.2,0.1,0.3s0,0.2-0.1,0.3l-3.9,3.8
		L121.9,334.4z"/>
	<polygon points="290.5,273.5 283,266 282,267 289.5,274.5 282,282 283,283 290.5,275.5 298,283 299,282 291.5,274.5 299,267 
		298,266 	"/>
	<path class="st16" d="M188.8,377.6v1.6h-2.5v-1.6h-4.5v1.6h-2.5v-1.6h-0.7c-0.4,0-0.8,0.2-1.1,0.5c-0.3,0.3-0.5,0.7-0.5,1.1v9.3
		c0,0.4,0.2,0.8,0.5,1.1c0.3,0.3,0.7,0.5,1.1,0.5h10.9c0.4,0,0.8-0.2,1.1-0.5c0.3-0.3,0.5-0.7,0.5-1.1v-9.3c0-0.4-0.1-0.8-0.5-1.1
		c-0.3-0.3-0.7-0.5-1.1-0.5H188.8z M189.4,388.4h-10.8v-6.2h10.9L189.4,388.4L189.4,388.4z M181,376h-1v2.6h1V376z M188,376h-1v2.6
		h1V376z"/>
</g>
</svg>
