<?xml version="1.0" encoding="utf-8"?>
<!-- Generator: Adobe Illustrator 19.1.0, SVG Export Plug-In . SVG Version: 6.00 Build 0)  -->
<svg version="1.1" id="Layer_1" xmlns="http://www.w3.org/2000/svg" xmlns:xlink="http://www.w3.org/1999/xlink" x="0px" y="0px"
	 width="283px" height="491px" viewBox="-178 -5 283 491" style="enable-background:new -178 -5 283 491;" xml:space="preserve">
<style type="text/css">
	.st0{fill:#ADDFEB;}
	.st1{fill:#FFFFFF;}
	.st2{fill:#85C5D4;}
	.st3{fill:#86754D;}
	.st4{fill:#231F20;}
</style>
<circle class="st0" cx="-10.4" cy="245.5" r="17.5"/>
<circle class="st0" cx="-60.4" cy="245.5" r="17.5"/>
<circle cx="-110.4" cy="245.5" r="17.5"/>
<circle cx="-160.4" cy="245.5" r="17.5"/>
<path class="st1" d="M-97.5,122c-0.3,0.3-0.4,0.6-0.4,1c0,0.4,0.1,0.7,0.4,1s0.6,0.4,1,0.4s0.7-0.1,1-0.4l16.7-16.7
	c0.3-0.3,0.4-0.6,0.4-1.1s-0.1-0.8-0.4-1.1l-16.7-16.7c-0.3-0.3-0.6-0.4-1-0.4s-0.7,0.1-1,0.4s-0.4,0.6-0.4,1s0.1,0.7,0.4,1
	l15.2,15.8L-97.5,122z"/>
<path class="st1" d="M-174,106.3l15.2-15.8c0.3-0.3,0.4-0.6,0.4-1s-0.1-0.7-0.4-1s-0.6-0.4-1-0.4c-0.4,0-0.7,0.1-1,0.4l-16.7,16.7
	c-0.3,0.3-0.4,0.6-0.4,1.1c0,0.4,0.1,0.8,0.4,1.1l16.7,16.7c0.3,0.3,0.6,0.4,1,0.4c0.4,0,0.7-0.1,1-0.4s0.4-0.6,0.4-1
	s-0.1-0.7-0.4-1L-174,106.3z"/>
<path class="st0" d="M-60.5,122c-0.3,0.3-0.4,0.6-0.4,1c0,0.4,0.1,0.7,0.4,1s0.6,0.4,1,0.4s0.7-0.1,1-0.4l16.7-16.7
	c0.3-0.3,0.4-0.6,0.4-1.1c0-0.4-0.1-0.8-0.4-1.1l-16.7-16.7c-0.3-0.3-0.6-0.4-1-0.4s-0.7,0.1-1,0.4s-0.4,0.6-0.4,1s0.1,0.7,0.4,1
	l15.2,15.8L-60.5,122z"/>
<path class="st0" d="M-138,106.3l15.2-15.8c0.3-0.3,0.4-0.6,0.4-1s-0.1-0.7-0.4-1s-0.6-0.4-1-0.4c-0.4,0-0.7,0.1-1,0.4l-16.7,16.7
	c-0.3,0.3-0.4,0.6-0.4,1.1c0,0.4,0.1,0.8,0.4,1.1l16.7,16.7c0.3,0.3,0.6,0.4,1,0.4c0.4,0,0.7-0.1,1-0.4c0.3-0.3,0.4-0.6,0.4-1
	s-0.1-0.7-0.4-1L-138,106.3z"/>
<path class="st1" d="M-157.8,252.4c0.1,0.1,0.2,0.3,0.2,0.4s-0.1,0.3-0.2,0.4c-0.1,0.1-0.3,0.2-0.4,0.2c-0.2,0-0.3-0.1-0.4-0.2
	l-7.1-7.1c-0.1-0.1-0.2-0.3-0.2-0.4s0.1-0.3,0.2-0.5l7.1-7.1c0.1-0.1,0.3-0.2,0.4-0.2c0.2,0,0.3,0.1,0.4,0.2
	c0.1,0.1,0.2,0.3,0.2,0.4c0,0.2-0.1,0.3-0.2,0.4l-6.4,6.7L-157.8,252.4z"/>
<path class="st1" d="M-113.7,252.4c-0.1,0.1-0.2,0.3-0.2,0.4s0.1,0.3,0.2,0.4s0.3,0.2,0.4,0.2s0.3-0.1,0.4-0.2l7.1-7.1
	c0.1-0.1,0.2-0.3,0.2-0.4s-0.1-0.3-0.2-0.5l-7.1-7.1c-0.1-0.1-0.3-0.2-0.4-0.2s-0.3,0.1-0.4,0.2s-0.2,0.3-0.2,0.4s0.1,0.3,0.2,0.4
	l6.4,6.7L-113.7,252.4z"/>
<path class="st1" d="M-57.8,252.4c0.1,0.1,0.2,0.3,0.2,0.4s-0.1,0.3-0.2,0.4s-0.3,0.2-0.4,0.2s-0.3-0.1-0.4-0.2l-7.1-7.1
	c-0.1-0.1-0.2-0.3-0.2-0.4s0.1-0.3,0.2-0.4l7.1-7.1c0.1-0.1,0.3-0.2,0.4-0.2s0.3,0.1,0.4,0.2s0.2,0.3,0.2,0.4s-0.1,0.3-0.2,0.4
	l-6.4,6.7L-57.8,252.4z"/>
<path class="st1" d="M-13.7,252.4c-0.1,0.1-0.2,0.3-0.2,0.4s0.1,0.3,0.2,0.4c0.1,0.1,0.3,0.2,0.4,0.2c0.1,0,0.3-0.1,0.4-0.2l7.1-7.1
	c0.1-0.1,0.2-0.3,0.2-0.4s-0.1-0.3-0.2-0.4l-7.1-7.1c-0.1-0.1-0.3-0.2-0.4-0.2c-0.1,0-0.3,0.1-0.4,0.2c-0.1,0.1-0.2,0.3-0.2,0.4
	s0.1,0.3,0.2,0.4l6.4,6.7L-13.7,252.4z"/>
<path class="st0" d="M46.8,483.7l-2.7-2.5c-0.1-0.1-0.2-0.2-0.4-0.2s-0.3,0.1-0.4,0.2c-0.1,0.1-0.2,0.2-0.2,0.4
	c0,0.1,0.1,0.3,0.2,0.4l3.1,3.1c0.1,0.1,0.2,0.2,0.4,0.2c0.1,0,0.3-0.1,0.4-0.2l3.1-3.1c0.1-0.1,0.2-0.2,0.2-0.4s-0.1-0.3-0.2-0.4
	c-0.1-0.1-0.2-0.2-0.4-0.2c-0.1,0-0.3,0.1-0.4,0.2L46.8,483.7z"/>
<path d="M69.8,427.7l-2.7-2.5c-0.1-0.1-0.2-0.2-0.4-0.2s-0.3,0.1-0.4,0.2c-0.1,0.1-0.2,0.2-0.2,0.4c0,0.1,0.1,0.3,0.2,0.4l3.1,3.1
	c0.1,0.1,0.2,0.2,0.4,0.2c0.1,0,0.3-0.1,0.4-0.2l3.1-3.1c0.1-0.1,0.2-0.2,0.2-0.4c0-0.1-0.1-0.3-0.2-0.4s-0.2-0.2-0.4-0.2
	c-0.1,0-0.3,0.1-0.4,0.2L69.8,427.7z"/>
<path d="M19.8,93.7l-2.5,2.7c-0.1,0.1-0.2,0.2-0.2,0.4s0.1,0.3,0.2,0.4c0.1,0.1,0.2,0.2,0.4,0.2c0.1,0,0.3-0.1,0.4-0.2l3.1-3.1
	c0.1-0.1,0.2-0.2,0.2-0.4s-0.1-0.3-0.2-0.4l-3.1-3.1C18,90.1,17.9,90,17.7,90c-0.1,0-0.3,0.1-0.4,0.2c-0.1,0.1-0.2,0.2-0.2,0.4
	c0,0.1,0.1,0.3,0.2,0.4L19.8,93.7z"/>
<path class="st2" d="M54.8,93.7l-2.5,2.7c-0.1,0.1-0.2,0.2-0.2,0.4s0.1,0.3,0.2,0.4c0.1,0.1,0.2,0.2,0.4,0.2c0.1,0,0.3-0.1,0.4-0.2
	l3.1-3.1c0.1-0.1,0.2-0.2,0.2-0.4s-0.1-0.3-0.2-0.4l-3.1-3.1C53,90.1,52.9,90,52.7,90c-0.1,0-0.3,0.1-0.4,0.2s-0.2,0.2-0.2,0.4
	c0,0.1,0.1,0.3,0.2,0.4L54.8,93.7z"/>
<path class="st1" d="M-170.9,307.2c-0.5,0.5-0.8,1.2-0.8,1.9s0.3,1.4,0.8,1.9s1.2,0.8,1.9,0.8c0.8,0,1.4-0.3,1.9-0.8
	s0.8-1.2,0.8-1.9c0-0.8-0.3-1.4-0.8-1.9s-1.2-0.8-1.9-0.8S-170.4,306.7-170.9,307.2z M-164,303.7c-0.1,0-0.3-0.1-0.4-0.2
	c-0.1-0.1-0.2-0.2-0.3-0.4l-0.5-1.7c0-0.1-0.1-0.3-0.3-0.4c-0.1-0.1-0.3-0.1-0.4-0.1h-6.1c-0.1,0-0.3,0-0.4,0.1
	c-0.1,0.1-0.2,0.2-0.3,0.4l-0.5,1.7c0,0.1-0.1,0.3-0.3,0.4c-0.1,0.1-0.3,0.2-0.4,0.2h-2.2c-0.5,0-0.9,0.2-1.3,0.5
	c-0.4,0.3-0.5,0.8-0.5,1.3v8.1c0,0.5,0.2,0.9,0.5,1.3c0.4,0.4,0.8,0.5,1.3,0.5h14.4c0.5,0,0.9-0.2,1.3-0.5c0.3-0.4,0.5-0.8,0.5-1.3
	v-8.1c0-0.5-0.2-0.9-0.5-1.3c-0.4-0.3-0.8-0.5-1.3-0.5H-164L-164,303.7z M-170.7,313.2c-0.5-0.2-1-0.6-1.4-1c-0.4-0.4-0.7-0.9-1-1.4
	c-0.2-0.5-0.4-1.1-0.4-1.7s0.1-1.2,0.4-1.7c0.2-0.5,0.6-1,1-1.4c0.4-0.4,0.9-0.7,1.4-1c0.5-0.2,1.1-0.4,1.7-0.4s1.2,0.1,1.7,0.4
	c0.5,0.2,1,0.6,1.4,1c0.4,0.4,0.7,0.9,1,1.4c0.2,0.5,0.4,1.1,0.4,1.7s-0.1,1.2-0.4,1.7c-0.2,0.5-0.6,1-1,1.4c-0.4,0.4-0.9,0.7-1.4,1
	c-0.5,0.2-1.1,0.4-1.7,0.4S-170.2,313.5-170.7,313.2z M-162.9,306.6c-0.1-0.1-0.2-0.3-0.2-0.5s0.1-0.3,0.2-0.5
	c0.1-0.1,0.3-0.2,0.5-0.2c0.2,0,0.3,0.1,0.4,0.2s0.2,0.3,0.2,0.5s-0.1,0.3-0.2,0.5c-0.1,0.1-0.3,0.2-0.4,0.2
	C-162.6,306.8-162.8,306.7-162.9,306.6z"/>
<path class="st0" d="M-170.9,357.2c-0.5,0.5-0.8,1.2-0.8,1.9s0.3,1.4,0.8,1.9s1.2,0.8,1.9,0.8c0.8,0,1.4-0.3,1.9-0.8
	s0.8-1.2,0.8-1.9c0-0.8-0.3-1.4-0.8-1.9s-1.2-0.8-1.9-0.8S-170.4,356.7-170.9,357.2z M-164,353.7c-0.1,0-0.3-0.1-0.4-0.2
	c-0.1-0.1-0.2-0.2-0.3-0.4l-0.5-1.7c0-0.1-0.1-0.3-0.3-0.4c-0.1-0.1-0.3-0.1-0.4-0.1h-6.1c-0.1,0-0.3,0-0.4,0.1
	c-0.1,0.1-0.2,0.2-0.3,0.4l-0.5,1.7c0,0.1-0.1,0.3-0.3,0.4c-0.1,0.1-0.3,0.2-0.4,0.2h-2.2c-0.5,0-0.9,0.2-1.3,0.5
	c-0.4,0.3-0.5,0.8-0.5,1.3v8.1c0,0.5,0.2,0.9,0.5,1.3c0.4,0.4,0.8,0.5,1.3,0.5h14.4c0.5,0,0.9-0.2,1.3-0.5c0.3-0.4,0.5-0.8,0.5-1.3
	v-8.1c0-0.5-0.2-0.9-0.5-1.3c-0.4-0.3-0.8-0.5-1.3-0.5H-164L-164,353.7z M-170.7,363.2c-0.5-0.2-1-0.6-1.4-1c-0.4-0.4-0.7-0.9-1-1.4
	c-0.2-0.5-0.4-1.1-0.4-1.7s0.1-1.2,0.4-1.7c0.2-0.5,0.6-1,1-1.4c0.4-0.4,0.9-0.7,1.4-1c0.5-0.2,1.1-0.4,1.7-0.4s1.2,0.1,1.7,0.4
	c0.5,0.2,1,0.6,1.4,1c0.4,0.4,0.7,0.9,1,1.4c0.2,0.5,0.4,1.1,0.4,1.7s-0.1,1.2-0.4,1.7c-0.2,0.5-0.6,1-1,1.4c-0.4,0.4-0.9,0.7-1.4,1
	c-0.5,0.2-1.1,0.4-1.7,0.4S-170.2,363.5-170.7,363.2z M-162.9,356.6c-0.1-0.1-0.2-0.3-0.2-0.5s0.1-0.3,0.2-0.5
	c0.1-0.1,0.3-0.2,0.5-0.2c0.2,0,0.3,0.1,0.4,0.2s0.2,0.3,0.2,0.5s-0.1,0.3-0.2,0.5c-0.1,0.1-0.3,0.2-0.4,0.2
	C-162.6,356.8-162.8,356.7-162.9,356.6z"/>
<g>
	<path class="st1" d="M-161.7,188.5c0-0.3,0.1-0.7,0-1.2c0-0.5-0.1-0.9-0.1-1.4s-0.1-0.8-0.1-1c0-0.1,0-0.3,0.1-0.6
		c0-0.2,0.1-0.5,0.1-0.8s0.1-0.6,0.1-0.8s0.1-0.4,0.1-0.5c0.2-0.7,0.5-1.2,0.9-1.5c0.4-0.4,0.8-0.7,1.2-0.9c0.4-0.3,0.8-0.5,1.2-0.7
		c0.4-0.2,0.6-0.5,0.8-1c0.5-1.3,0.5-2.3,0.1-3.1c-0.4-0.7-0.9-1.3-1.7-1.7c-0.7-0.4-1.5-0.6-2.2-0.8c-0.7-0.1-1.2-0.2-1.4-0.3
		c-0.4-0.1-0.9-0.2-1.5-0.3c-0.6,0-1,0-1.3,0.1c-0.2,0.1-0.6,0-1-0.4c-0.4-0.3-0.6-0.7-0.6-1.1c0-0.2,0.1-0.4,0.3-0.7
		s0.5-0.6,0.8-0.9c0.3-0.3,0.6-0.6,0.9-0.9s0.6-0.6,0.8-0.8c0.3-0.5,0.7-0.9,1-1s0.8-0.5,1.4-1.1c0.3-0.2,0.6-0.5,1-0.6
		c0.7-0.2,1-0.4,1.2-0.8c-2.7,0.4-5.1,1.4-7.2,3.1c-2.1,1.7-3.6,3.7-4.5,6.2c0.3,0,0.6,0.1,1,0.1c0.4,0,0.8,0.1,1.2,0.1
		c0.4,0.1,0.8,0.2,1.1,0.3s0.6,0.3,0.6,0.5c0.1,0.2,0.1,0.5,0,0.7c-0.1,0.2-0.3,0.5-0.4,0.8c-0.2,0.3-0.3,0.6-0.5,1
		c-0.1,0.4-0.2,0.8-0.2,1.3s0.1,0.9,0.4,1.2c0.3,0.3,0.6,0.6,0.9,0.8s0.6,0.5,0.9,0.7s0.4,0.6,0.4,0.9c0,0.8,0.1,1.6,0.3,2.4
		c0.2,0.8,0.3,1.3,0.3,1.6c0,0.1,0.1,0.4,0.4,0.8c0.2,0.4,0.5,0.7,0.9,1.2c0.4,0.4,0.7,0.8,1,1.1s0.6,0.5,0.9,0.5
		C-161.9,189-161.8,188.8-161.7,188.5z"/>
	<path class="st1" d="M-151.4,189.5c-0.9-0.2-1.7-0.2-2.3-0.1c-0.7,0.1-1.5,0.3-2.2,0.6c-0.7,0.3-1.4,0.5-1.8,0.6
		c-0.5,0.1-1,0.2-1.4,0.4c-0.4,0.1-0.9,0.2-1.3,0.2c-0.4,0-0.7,0.2-0.8,0.4c-0.3,0.2-0.6,0.5-1,0.7c0.7,0.2,1.5,0.4,2.2,0.5
		c0.8,0.1,1.6,0.2,2.4,0.2c3.1,0,5.8-0.8,8.1-2.4C-149.8,190-150.5,189.7-151.4,189.5z"/>
	<path class="st1" d="M-177.9,158v40.6h40.5V158H-177.9z M-141.7,185c-0.9,2.1-2.1,3.9-3.7,5.5c-1.6,1.6-3.4,2.8-5.5,3.7
		c-2.1,0.9-4.3,1.4-6.7,1.4c-2.4,0-4.6-0.5-6.7-1.4c-2.1-0.9-3.9-2.1-5.5-3.7c-1.6-1.6-2.8-3.4-3.7-5.5s-1.4-4.3-1.4-6.7
		s0.5-4.6,1.4-6.7c0.9-2.1,2.1-3.9,3.7-5.5s3.4-2.8,5.5-3.7c2-0.9,4.3-1.4,6.7-1.4c2.4,0,4.6,0.5,6.7,1.4c2.1,0.9,3.9,2.1,5.5,3.7
		c1.6,1.6,2.8,3.4,3.7,5.5c0.9,2.1,1.4,4.3,1.4,6.7S-140.8,182.9-141.7,185z"/>
	<path class="st1" d="M-145.8,169.7c-0.9-1.2-2-2.3-3.2-3.2s-2.6-1.6-4-2.1c-0.4,0.6-0.6,1-0.6,1.2c0.1,1,0.3,1.6,0.6,1.8
		s0.7,0.3,1.1,0.2c0.4-0.1,0.8-0.2,1.1-0.4c0.4-0.2,0.6-0.2,0.8-0.1c0.5,0.5,0.6,1,0.3,1.4s-0.7,0.8-1.1,1.3c-0.5,0.5-0.8,1-1.1,1.6
		c-0.3,0.6-0.2,1.4,0.3,2.3s1,1.5,1.5,1.8s1.2,0.5,1.9,0.5c0.4,0,0.7,0.1,1,0.4c0.3,0.3,0.5,0.6,0.6,1c0.2,0.4,0.3,0.8,0.4,1.2
		c0.1,0.4,0.1,0.7,0.1,1s0.1,0.6,0.1,1.1c0,0.4,0,0.9-0.1,1.4c0,0.5-0.1,1-0.2,1.4c-0.1,0.5-0.2,0.9-0.3,1.2
		c-0.3,0.6-0.3,1.1-0.1,1.6s0.4,0.9,0.6,1.1c1-1.2,1.7-2.6,2.3-4.2c0.7-1.6,0.9-3.2,0.9-4.9c0-1.6-0.3-3.2-0.8-4.6
		C-144.2,172.2-144.9,170.9-145.8,169.7z"/>
</g>
<path class="st1" d="M-137,316v-2.8h2.8v2.8H-137z M-133.6,316v-2.8h3.1v2.8H-133.6z M-137,312.6v-3.1h2.8v3.1H-137z M-133.6,312.6
	v-3.1h3.1v3.1H-133.6z M-137,308.9v-2.8h2.8v2.8H-137z M-129.9,316v-2.8h3.1v2.8H-129.9z M-133.6,308.9v-2.8h3.1v2.8H-133.6z
	 M-126.2,316v-2.8h2.8v2.8H-126.2z M-129.9,312.6v-3.1h3.1v3.1H-129.9z M-133.3,304.3c0,0.2-0.1,0.3-0.3,0.3h-0.6
	c-0.2,0-0.3-0.1-0.3-0.3v-2.8c0-0.2,0.1-0.3,0.3-0.3h0.6c0.2,0,0.3,0.1,0.3,0.3V304.3z M-126.2,312.6v-3.1h2.8v3.1H-126.2z
	 M-129.9,308.9v-2.8h3.1v2.8H-129.9z M-126.2,308.9v-2.8h2.8v2.8H-126.2z M-125.9,304.3c0,0.2-0.1,0.3-0.3,0.3h-0.6
	c-0.2,0-0.3-0.1-0.3-0.3v-2.8c0-0.2,0.1-0.3,0.3-0.3h0.6c0.2,0,0.3,0.1,0.3,0.3V304.3z M-122.2,303.7c0-0.7-0.6-1.2-1.2-1.2h-1.2
	v-0.9c0-0.8-0.7-1.5-1.5-1.5h-0.6c-0.8,0-1.5,0.7-1.5,1.5v0.9h-3.7v-0.9c0-0.8-0.7-1.5-1.5-1.5h-0.6c-0.8,0-1.5,0.7-1.5,1.5v0.9
	h-1.2c-0.7,0-1.2,0.6-1.2,1.2V316c0,0.7,0.6,1.2,1.2,1.2h13.6c0.7,0,1.2-0.6,1.2-1.2v-12.3H-122.2z"/>
<path class="st0" d="M-137,366v-2.8h2.8v2.8H-137z M-133.6,366v-2.8h3.1v2.8H-133.6z M-137,362.6v-3.1h2.8v3.1H-137z M-133.6,362.6
	v-3.1h3.1v3.1H-133.6z M-137,358.9v-2.8h2.8v2.8H-137z M-129.9,366v-2.8h3.1v2.8H-129.9z M-133.6,358.9v-2.8h3.1v2.8H-133.6z
	 M-126.2,366v-2.8h2.8v2.8H-126.2z M-129.9,362.6v-3.1h3.1v3.1H-129.9z M-133.3,354.3c0,0.2-0.1,0.3-0.3,0.3h-0.6
	c-0.2,0-0.3-0.1-0.3-0.3v-2.8c0-0.2,0.1-0.3,0.3-0.3h0.6c0.2,0,0.3,0.1,0.3,0.3V354.3z M-126.2,362.6v-3.1h2.8v3.1H-126.2z
	 M-129.9,358.9v-2.8h3.1v2.8H-129.9z M-126.2,358.9v-2.8h2.8v2.8H-126.2z M-125.9,354.3c0,0.2-0.1,0.3-0.3,0.3h-0.6
	c-0.2,0-0.3-0.1-0.3-0.3v-2.8c0-0.2,0.1-0.3,0.3-0.3h0.6c0.2,0,0.3,0.1,0.3,0.3V354.3z M-122.2,353.7c0-0.7-0.6-1.2-1.2-1.2h-1.2
	v-0.9c0-0.8-0.7-1.5-1.5-1.5h-0.6c-0.8,0-1.5,0.7-1.5,1.5v0.9h-3.7v-0.9c0-0.8-0.7-1.5-1.5-1.5h-0.6c-0.8,0-1.5,0.7-1.5,1.5v0.9
	h-1.2c-0.7,0-1.2,0.6-1.2,1.2V366c0,0.7,0.6,1.2,1.2,1.2h13.6c0.7,0,1.2-0.6,1.2-1.2v-12.3H-122.2z"/>
<g>
	<path class="st1" d="M-23.8,174.8c-0.1,0-0.1,0-0.2,0c-0.9,0-1.6,0.4-2.1,0.9s-0.9,1.1-0.7,1.7c0.1,1.3,1.5,2.1,3.2,1.9
		s2.8-1.1,2.7-2.3C-21.3,175.7-22.3,174.8-23.8,174.8z"/>
	<path class="st1" d="M-22.3,167.9c-0.5-1.6-1.1-1.9-2.2-1.9c-0.1,0-0.2,0-0.4,0c-0.5,0.1-0.9,0.6-1.1,1.1c-0.2,0.6-0.2,1.2,0,1.9
		c0.4,1.2,1.2,2.2,2.2,2.2c0.1,0,0.2,0,0.4,0C-22.5,170.8-21.8,169.3-22.3,167.9z"/>
	<path class="st1" d="M57,178c0-0.1,0-0.4,0-0.6s0-0.5,0-0.7s0-0.4,0-0.5s0-0.1,0-0.2s0-0.2,0.1-0.4c0-0.1,0-0.2,0.1-0.4
		c0-0.1,0-0.2,0.1-0.2c0.1-0.4,0.2-0.6,0.5-0.7c0.2-0.1,0.4-0.4,0.6-0.5c0.2-0.1,0.4-0.2,0.6-0.4c0.2-0.1,0.4-0.2,0.4-0.5
		c0.2-0.6,0.2-1.2,0.1-1.6c-0.2-0.4-0.5-0.6-0.9-0.9c-0.4-0.2-0.7-0.4-1.1-0.4s-0.6-0.1-0.7-0.1c-0.2-0.1-0.5-0.1-0.7-0.1
		s-0.5,0-0.7,0c-0.1,0-0.2,0-0.5-0.2c-0.2-0.1-0.4-0.4-0.4-0.6c0-0.1,0-0.2,0.1-0.4c0.1-0.1,0.2-0.2,0.4-0.5
		c0.1-0.1,0.4-0.4,0.5-0.5s0.2-0.2,0.4-0.4c0.1-0.2,0.4-0.5,0.5-0.5c0.1-0.1,0.4-0.2,0.7-0.6c0.1-0.1,0.4-0.2,0.5-0.4
		c0.2-0.1,0.4-0.2,0.5-0.4c-1.3,0.2-2.6,0.7-3.6,1.6c-1.1,0.9-1.8,1.9-2.3,3.2c0.1,0,0.4,0,0.5,0c0.2,0,0.4,0,0.6,0.1
		c0.2,0,0.4,0.1,0.6,0.1c0.1,0.1,0.2,0.1,0.4,0.2c0,0.1,0,0.2,0,0.4c-0.1,0.1-0.1,0.2-0.2,0.4s-0.1,0.4-0.2,0.5
		c-0.1,0.2-0.1,0.4-0.1,0.6s0.1,0.5,0.2,0.6c0.1,0.1,0.2,0.2,0.5,0.4c0.1,0.1,0.4,0.2,0.5,0.4c0.1,0.1,0.2,0.2,0.2,0.5
		c0,0.4,0,0.9,0.1,1.2c0.1,0.4,0.1,0.7,0.1,0.9s0,0.2,0.2,0.4c0.1,0.2,0.2,0.4,0.5,0.6c0.2,0.2,0.4,0.4,0.5,0.5s0.4,0.2,0.5,0.2
		C56.9,178.2,57,178.1,57,178z"/>
	<path class="st1" d="M-82.1,158.6v28h186.7v-28H-82.1z M-67.5,167.4h-2.6c-0.4,0-0.6,0.4-0.6,1v1.8h3.3v2.7h-3.3v8h-3.2v-8h-2.8
		v-2.7h2.8v-1.6c0-2.3,1.6-4.1,3.8-4.1h2.6C-67.5,164.5-67.5,167.4-67.5,167.4z M-41.5,169.3c0,0.1,0,0.2,0,0.5
		c0,4.6-3.4,9.7-9.7,9.7c-1.9,0-3.8-0.6-5.2-1.6c0.2,0,0.5,0,0.9,0c1.6,0,3-0.5,4.3-1.5c-1.5,0-2.8-1-3.2-2.4
		c0.2,0.1,0.4,0.1,0.6,0.1c0.4,0,0.6,0,1-0.1c-1.6-0.4-2.7-1.7-2.7-3.4l0,0c0.5,0.2,1,0.4,1.6,0.5c-1-0.6-1.6-1.7-1.6-2.9
		c0-0.6,0.2-1.2,0.5-1.7c1.7,2.1,4.3,3.5,7.2,3.5c-0.1-0.2-0.1-0.5-0.1-0.7c0-1.9,1.6-3.4,3.5-3.4c1,0,1.8,0.4,2.4,1.1
		c0.9-0.1,1.6-0.5,2.2-0.9c-0.2,0.9-0.9,1.5-1.5,1.9c0.7-0.1,1.3-0.2,1.9-0.6C-40.3,168.2-40.7,168.8-41.5,169.3z M-21.7,180.2
		c-1.1,0.6-2.3,0.6-2.7,0.6c-0.1,0-0.1,0-0.1,0s0,0-0.1,0c-0.7,0-4.3-0.1-4.3-3.4c0-3.2,3.8-3.4,5-3.4l0,0c-0.6-1-0.6-1.8-0.6-1.8
		s-0.1,0-0.2,0c-0.5,0-1.2-0.1-1.9-0.6c-1-0.6-1.3-1.6-1.3-2.9c0-3.8,4.1-4,4.3-4h4.1v0.1c0,0.5-0.9,0.6-1.5,0.6
		c-0.1,0-0.6,0-0.7,0.1c1.1,0.6,1.2,1.5,1.2,2.8c0,1.6-0.6,2.3-1.2,2.9c-0.4,0.4-0.7,0.6-0.7,1s0.5,0.7,1,1.2
		c0.9,0.7,1.9,1.6,1.9,3.3C-19.5,178.3-20.2,179.5-21.7,180.2z M-12.4,172.7h-2.7v2.7h-1.7v-2.7h-2.7V171h2.7v-2.7h1.7v2.7h2.7
		V172.7z M6.8,176.9c-1.1-0.1-1.6-0.6-2.4-1.2c-0.5,2.6-1.1,4.9-2.8,6.2c-0.5-3.8,0.7-6.7,1.3-9.7c-1-1.7,0.1-5.4,2.3-4.4
		c2.7,1.1-2.3,6.6,1.1,7.2c3.5,0.7,5-6.2,2.8-8.4c-3.2-3.2-9.2-0.1-8.5,4.6c0.2,1.1,1.3,1.5,0.5,3c-2.1-0.5-2.7-2.1-2.6-4.3
		c0.1-3.5,3.2-6,6.2-6.3c3.9-0.5,7.4,1.5,7.9,5C13.3,172.7,10.9,177.1,6.8,176.9z M23.7,167.4c0-1.3,1.1-2.4,2.4-2.4h10.8
		c1.3,0,2.4,1.1,2.4,2.4v2.7h-4c-0.9-1.2-2.3-1.9-3.9-1.9c-1.6,0-3,0.7-3.9,1.9h-4v-2.7H23.7z M34.4,172.7c0,1.6-1.3,2.9-2.9,2.9
		s-2.9-1.3-2.9-2.9s1.3-2.9,2.9-2.9S34.4,171.2,34.4,172.7z M39.4,178.1c0,1.3-1.1,2.4-2.4,2.4H26.1c-1.3,0-2.4-1.1-2.4-2.4v-6.3
		h3.2c0,0.2-0.1,0.6-0.1,1c0,2.6,2.1,4.7,4.7,4.7c2.6,0,4.7-2.2,4.7-4.7c0-0.4,0-0.6-0.1-1h3.2L39.4,178.1L39.4,178.1z M67.1,176.1
		c-0.5,1.1-1.1,1.9-1.8,2.8c-0.9,0.7-1.7,1.5-2.8,1.8c-1.1,0.5-2.2,0.7-3.4,0.7s-2.3-0.2-3.4-0.7s-1.9-1.1-2.8-1.8
		c-0.9-0.7-1.5-1.7-1.8-2.8c-0.5-1.1-0.7-2.2-0.7-3.4s0.2-2.3,0.7-3.4s1.1-1.9,1.8-2.8c0.7-0.7,1.7-1.5,2.8-1.8
		c1.1-0.5,2.2-0.7,3.4-0.7s2.3,0.2,3.4,0.7s1.9,1.1,2.8,1.8c0.7,0.7,1.5,1.7,1.8,2.8c0.5,1.1,0.7,2.2,0.7,3.4S67.6,175,67.1,176.1z
		 M92.3,174.2c-0.2,1.7-0.9,1.9-2.2,2.1c-1.9,0.1-6.2,0.1-8.1,0c-1.3-0.1-2.1-0.4-2.2-2.1c-0.1-1.2-0.1-3.4,0-4.7
		c0.2-1.7,0.9-1.9,2.2-2.1c1.9-0.1,6.2-0.1,8.1,0c1.3,0.1,2.1,0.4,2.2,2.1C92.4,170.8,92.4,173,92.3,174.2z"/>
	<path class="st1" d="M61.1,178.3c-0.4,0-0.7,0.1-1.1,0.4c-0.4,0.1-0.7,0.2-1,0.4c-0.2,0-0.5,0.1-0.7,0.1c-0.2,0.1-0.5,0.1-0.7,0.1
		s-0.4,0.1-0.4,0.2c-0.1,0.1-0.2,0.2-0.5,0.4c0.4,0.1,0.7,0.2,1.1,0.2c0.4,0,0.9,0.1,1.2,0.1c1.6,0,2.9-0.4,4.1-1.2
		c-0.1-0.2-0.5-0.5-1-0.6C61.8,178.3,61.3,178.3,61.1,178.3z"/>
	<path class="st1" d="M65.1,168.4c-0.5-0.6-1-1.1-1.6-1.6s-1.3-0.9-2.1-1.1c-0.2,0.2-0.4,0.5-0.2,0.6c0,0.5,0.1,0.9,0.4,1
		c0.1,0.1,0.4,0.1,0.5,0.1c0.2,0,0.4-0.1,0.6-0.2s0.4-0.1,0.4,0c0.2,0.2,0.2,0.5,0.1,0.7s-0.4,0.4-0.6,0.6c-0.2,0.2-0.4,0.5-0.6,0.9
		c-0.1,0.2-0.1,0.7,0.1,1.1c0.2,0.5,0.5,0.7,0.7,1c0.2,0.1,0.6,0.2,1,0.2c0.2,0,0.4,0.1,0.5,0.2c0.1,0.1,0.2,0.4,0.4,0.5
		c0.1,0.2,0.1,0.4,0.2,0.6c0,0.2,0.1,0.4,0.1,0.5s0,0.4,0,0.6s0,0.5,0,0.7s0,0.5-0.1,0.7c0,0.2-0.1,0.5-0.1,0.6
		c-0.1,0.2-0.1,0.6-0.1,0.9c0.1,0.2,0.2,0.5,0.4,0.6c0.5-0.6,0.9-1.3,1.1-2.1c0.2-0.7,0.4-1.6,0.4-2.4c0-0.9-0.1-1.6-0.4-2.3
		C65.9,169.7,65.6,169,65.1,168.4z"/>
	<path class="st1" d="M36.4,168.4h1.3c0.2,0,0.5-0.2,0.5-0.5v-1.3c0-0.2-0.2-0.5-0.5-0.5h-1.3c-0.2,0-0.5,0.2-0.5,0.5v1.3
		C35.9,168.1,36.1,168.4,36.4,168.4z"/>
	<polygon class="st1" points="84.8,173.7 88.2,171.9 84.8,170.1 	"/>
</g>
<path d="M-88.5,306.6c-0.2,0.3-0.5,0.5-0.8,0.7c-1.3,0.9-2.7,1.8-4,2.8c-0.7,0.5-1.5,1.1-2.4,1.1l0,0l0,0c-0.9,0-1.7-0.6-2.4-1.1
	c-1.3-1-2.7-1.9-4-2.8c-0.3-0.2-0.6-0.4-0.8-0.7v6.4c0,0.7,0.6,1.3,1.3,1.3h11.8c0.7,0,1.3-0.6,1.3-1.3V306.6z M-88.5,304.3
	c0-0.7-0.6-1.3-1.3-1.3h-11.8c-0.9,0-1.3,0.7-1.3,1.5c0,0.7,0.8,1.6,1.4,2c1.2,0.9,2.5,1.7,3.8,2.6c0.5,0.4,1.4,1.1,2.1,1.1l0,0l0,0
	c0.7,0,1.5-0.7,2.1-1.1c1.2-0.9,2.5-1.7,3.8-2.6C-89.2,306-88.5,305.2-88.5,304.3z"/>
<path class="st0" d="M-88.5,356.6c-0.2,0.3-0.5,0.5-0.8,0.7c-1.3,0.9-2.7,1.8-4,2.8c-0.7,0.5-1.5,1.1-2.4,1.1l0,0l0,0
	c-0.9,0-1.7-0.6-2.4-1.1c-1.3-1-2.7-1.9-4-2.8c-0.3-0.2-0.6-0.4-0.8-0.7v6.4c0,0.7,0.6,1.3,1.3,1.3h11.8c0.7,0,1.3-0.6,1.3-1.3
	V356.6z M-88.5,354.3c0-0.7-0.6-1.3-1.3-1.3h-11.8c-0.9,0-1.3,0.7-1.3,1.5c0,0.7,0.8,1.6,1.4,2c1.2,0.9,2.5,1.7,3.8,2.6
	c0.5,0.4,1.4,1.1,2.1,1.1l0,0l0,0c0.7,0,1.5-0.7,2.1-1.1c1.2-0.9,2.5-1.7,3.8-2.6C-89.2,356-88.5,355.2-88.5,354.3z"/>
<path class="st1" d="M45.8,236.6c0-0.1-0.1-0.3-0.2-0.4l-0.9-0.9c-0.1-0.1-0.3-0.2-0.4-0.2c-0.2,0-0.3,0.1-0.4,0.2l-7.4,7.4
	l-7.4-7.4c-0.1-0.1-0.3-0.2-0.4-0.2c-0.2,0-0.3,0.1-0.4,0.2l-0.9,0.9c-0.1,0.1-0.2,0.3-0.2,0.4s0.1,0.3,0.2,0.4l8.7,8.7
	c0.1,0.1,0.3,0.2,0.4,0.2c0.1,0,0.3-0.1,0.4-0.2l8.7-8.7C45.7,236.9,45.8,236.7,45.8,236.6z"/>
<path class="st0" d="M75.8,236.6c0-0.1-0.1-0.3-0.2-0.4l-0.9-0.9c-0.1-0.1-0.3-0.2-0.4-0.2s-0.3,0.1-0.4,0.2l-7.4,7.4l-7.4-7.4
	c-0.1-0.1-0.3-0.2-0.4-0.2c-0.2,0-0.3,0.1-0.4,0.2l-0.9,0.9c-0.1,0.1-0.2,0.3-0.2,0.4s0.1,0.3,0.2,0.4l8.7,8.7
	c0.1,0.1,0.3,0.2,0.4,0.2c0.1,0,0.3-0.1,0.4-0.2l8.7-8.7C75.7,236.9,75.8,236.7,75.8,236.6z"/>
<g>
	<path class="st3" d="M-174.2,35.2h-3.5c-0.2,0-0.3-0.1-0.3-0.3v-1.1c0-0.1,0.1-0.3,0.3-0.3h8.8c0.2,0,0.3,0.1,0.3,0.3v1.1
		c0,0.1-0.1,0.3-0.3,0.3h-3.5V44c0,0.1-0.1,0.3-0.3,0.3h-1.3c-0.1,0-0.3-0.1-0.3-0.3v-8.8H-174.2z"/>
	<path class="st3" d="M-161.3,33.8c0-0.1,0.1-0.3,0.3-0.3h4.6c1.7,0,3.6,1.4,3.6,3.6c0,2.2-1.2,3.1-2.4,3.6c0,0,0.3,0.1,0.8,0.8
		c0.4,0.5,1.4,2.4,1.4,2.4c0.1,0.2,0,0.4-0.2,0.4h-1.5c-0.1,0-0.2-0.1-0.2-0.1s-0.3-0.9-1-1.8c-0.7-0.9-1.8-1.4-1.8-1.4h-1.9v3
		c0,0.1-0.1,0.3-0.3,0.3h-1.3c-0.2,0-0.3-0.1-0.3-0.3V33.8H-161.3z M-156.5,39.4c1.7,0,2.2-1.5,2.2-2.3c0-1.5-1.4-1.9-2.2-1.9h-2.9
		v4.2H-156.5L-156.5,39.4z"/>
	<path class="st3" d="M-95.7,40.9h-1.9v3c0,0.1-0.1,0.3-0.3,0.3h-1.3c-0.2,0-0.3-0.1-0.3-0.3V33.7c0-0.1,0.1-0.3,0.3-0.3h4.6
		c1.7,0,3.6,1.4,3.6,3.6c0,2.4-1.4,3.3-2.6,3.7C-93.8,40.9-95.7,40.9-95.7,40.9L-95.7,40.9z M-94.6,39.3c1.7,0,2.2-1.4,2.2-2.2
		c0-1.5-1.4-1.9-2.2-1.9h-2.9v4.1L-94.6,39.3L-94.6,39.3z"/>
	<path class="st3" d="M-144.8,33.8c0-0.1,0.1-0.3,0.3-0.3h1.3c0.1,0,0.3,0.1,0.3,0.3V44c0,0.1-0.1,0.3-0.3,0.3h-1.3
		c-0.1,0-0.3-0.1-0.3-0.3V33.8L-144.8,33.8z"/>
	<path class="st3" d="M-84.1,33.8c0-0.1,0.1-0.3,0.3-0.3h1.3c0.2,0,0.3,0.1,0.3,0.3v4.3h4.6v-4.3c0-0.1,0.1-0.3,0.3-0.3h1.3
		c0.1,0,0.3,0.1,0.3,0.3V44c0,0.1-0.1,0.3-0.3,0.3h-1.3c-0.2,0-0.3-0.1-0.3-0.3v-4.2h-4.6V44c0,0.1-0.1,0.3-0.3,0.3h-1.4
		c-0.1,0-0.3-0.1-0.3-0.3L-84.1,33.8L-84.1,33.8z"/>
	<path class="st3" d="M-149.4,50.8c0-0.1,0.1-0.2,0.2-0.2h0.9c0.1,0,0.2,0.1,0.2,0.2v2.4h3v-2.4c0-0.1,0.1-0.2,0.2-0.2h0.9
		c0.1,0,0.2,0.1,0.2,0.2v6.1c0,0.1-0.1,0.2-0.2,0.2h-0.9c-0.1,0-0.2-0.1-0.2-0.2v-2.6h-3v2.6c0,0.1-0.1,0.2-0.2,0.2h-0.9
		c-0.1,0-0.2-0.1-0.2-0.2L-149.4,50.8L-149.4,50.8z"/>
	<path class="st3" d="M-136.7,50.5c1.9,0,3.3,1.5,3.3,3.3c0,1.9-1.5,3.3-3.3,3.3s-3.3-1.5-3.3-3.3S-138.6,50.5-136.7,50.5
		L-136.7,50.5z M-136.7,56c1.2,0,2.1-1,2.1-2.1c0-1.2-1-2.1-2.1-2.1c-1.2,0-2.1,1-2.1,2.1S-137.9,56-136.7,56L-136.7,56z"/>
	<path class="st3" d="M-128.6,51.7h-2c-0.1,0-0.2-0.1-0.2-0.2v-0.8c0-0.1,0.1-0.2,0.2-0.2h5.3c0.1,0,0.2,0.1,0.2,0.2v0.8
		c0,0.1-0.1,0.2-0.2,0.2h-2v5.2c0,0.1-0.1,0.2-0.2,0.2h-0.9c-0.1,0-0.2-0.1-0.2-0.2V51.7L-128.6,51.7z"/>
	<path class="st3" d="M-122,50.8c0-0.1,0.1-0.2,0.2-0.2h4.1c0.1,0,0.2,0.1,0.2,0.2v0.8c0,0.1-0.1,0.2-0.2,0.2h-3v1.5h2.3
		c0.1,0,0.2,0.1,0.2,0.2v0.8c0,0.1-0.1,0.2-0.2,0.2h-2.3v1.6h3c0.1,0,0.2,0.1,0.2,0.2v0.8c0,0.1-0.1,0.2-0.2,0.2h-4.1
		c-0.1,0-0.2-0.1-0.2-0.2V50.8L-122,50.8z"/>
	<path class="st3" d="M-113.8,50.8c0-0.1,0.1-0.2,0.2-0.2h0.9c0.1,0,0.2,0.1,0.2,0.2V56h3c0.1,0,0.2,0.1,0.2,0.2V57
		c0,0.1-0.1,0.2-0.2,0.2h-4c-0.1,0-0.2-0.1-0.2-0.2L-113.8,50.8L-113.8,50.8z"/>
	<path class="st3" d="M-106.8,56.2l0.3-0.6c0.1-0.1,0.2-0.1,0.3-0.1c0,0,0.7,0.5,1.3,0.5c0.5,0,0.8-0.3,0.8-0.7c0-0.5-0.3-0.7-1.1-1
		c-0.9-0.3-1.7-0.9-1.7-2c0-0.8,0.6-1.8,2.1-1.8c0.9,0,1.7,0.5,1.8,0.6c0.1,0.1,0.1,0.2,0.1,0.3l-0.4,0.5c-0.1,0.1-0.2,0.2-0.3,0.1
		c-0.1,0-0.6-0.4-1.2-0.4c-0.5,0-0.8,0.3-0.8,0.6c0,0.4,0.2,0.7,1,1c0.9,0.4,1.9,0.9,1.9,2.1c0,1-0.8,1.8-2.1,1.8
		c-1.2,0-1.9-0.5-2-0.7C-106.8,56.4-106.9,56.3-106.8,56.2L-106.8,56.2z"/>
	<path class="st3" d="M-107.7,33.5h-1.3l0,0c0,0,0,0-0.1,0h-0.2c-0.1,0-0.2,0.1-0.2,0.1l-3.1,5.1l0,0l-3.1-5.1
		c0-0.1-0.1-0.1-0.2-0.1h-0.2l0,0l0,0h-1.3c-0.1,0-0.3,0.1-0.3,0.3V44c0,0.1,0.1,0.3,0.3,0.3h1.3c0.2,0,0.3-0.1,0.3-0.3v-4.8v-1.7
		v-0.8l3,4.7c0,0.1,0.1,0.2,0.2,0.2h0.3c0.1,0,0.2-0.1,0.2-0.2c0,0,1.8-2.8,3.1-4.7v0.9v1.7v4.8c0,0.1,0.1,0.3,0.3,0.3h1.3
		c0.1,0,0.3-0.1,0.3-0.3V33.9C-107.4,33.6-107.5,33.5-107.7,33.5L-107.7,33.5z"/>
	<path class="st3" d="M-134.4,33.8c0-0.1,0.1-0.3,0.3-0.3h1.3c0.2,0,0.3,0.1,0.3,0.3v6.3c0,1.2,0.8,2.4,2,2.4h1c1.2,0,2-1.3,2-2.4
		v-6.4c0-0.1,0.1-0.3,0.3-0.3h1.3c0.1,0,0.3,0.1,0.3,0.3v6.4c0,2.1-1.7,4.1-3.9,4.2h-1c-2.2,0-3.9-2-3.9-4.2L-134.4,33.8
		L-134.4,33.8z"/>
	<path class="st3" d="M-102,56.2c0,0.6,0.4,1,1,1s1-0.4,1-1s-0.5-1-1-1S-102,55.7-102,56.2L-102,56.2z M-101.8,56.2
		c0-0.5,0.4-0.8,0.8-0.8c0.5,0,0.8,0.4,0.8,0.8c0,0.5-0.4,0.8-0.8,0.8S-101.8,56.7-101.8,56.2L-101.8,56.2z M-101.3,56.7
		L-101.3,56.7L-101.3,56.7c0.1,0.1,0.2,0.1,0.2,0v-0.3h0.2l0.2,0.3c0,0,0,0,0.1,0h0.1c0,0,0.1,0,0-0.1s-0.1-0.2-0.2-0.3
		c0.1,0,0.2-0.1,0.2-0.3s-0.2-0.3-0.3-0.3h-0.4c0,0-0.1,0-0.1,0.1L-101.3,56.7L-101.3,56.7z M-101.2,56.2v-0.3h0.3
		c0.1,0,0.2,0.1,0.2,0.2c0,0.1-0.1,0.2-0.2,0.2L-101.2,56.2L-101.2,56.2z"/>
	<path class="st3" d="M-121.9,0.9c0-1.8-1.6-3.2-3.8-3.6c0.1-0.2,0.2-0.5,0.2-0.8c0-0.8-0.7-1.5-1.5-1.5s-1.5,0.7-1.5,1.5
		c0,0.3,0.1,0.6,0.2,0.8c-2.1,0.4-3.6,1.9-3.6,3.6c0,1.9,1.9,3.5,4.4,3.7v0.7c-0.3,0-0.5,0.2-0.5,0.5s0.2,0.5,0.5,0.5v0.4
		c-0.3,0-0.5,0.2-0.5,0.5s0.2,0.5,0.5,0.5v8.8c-0.3,0-0.5,0.2-0.5,0.5s0.2,0.5,0.5,0.5v0.9h-2.2c-0.1,0-0.3,0.1-0.3,0.3v0.5
		c0,0.1,0.1,0.3,0.3,0.3h2.2v0.7h-0.5c-0.1,0-0.3,0.1-0.3,0.3v1.8h-0.9v-1.8c0-0.1-0.1-0.3-0.3-0.3h-0.3c-0.1,0-0.3,0.1-0.3,0.3v2.6
		c0,0.1,0.1,0.3,0.3,0.3l0,0h2.2v1c0,0.4,0.3,0.7,0.7,0.7c0.4,0,0.7-0.3,0.7-0.7v-1h2.2l0,0c0.1,0,0.3-0.1,0.3-0.3v-0.5
		c0-0.1-0.1-0.3-0.3-0.3h-0.6v-0.8c0-0.1-0.1-0.3-0.3-0.3h-0.3c-0.1,0-0.3,0.1-0.3,0.3l0,0v0.8h-0.8v-2.8h0.8v0.8l0,0
		c0,0.1,0.1,0.3,0.3,0.3h0.3c0.1,0,0.3-0.1,0.3-0.3v-0.8h0.6c0.1,0,0.3-0.1,0.3-0.3v-0.5c0-0.1-0.1-0.3-0.3-0.3h-2.2v-0.9
		c0.3,0,0.5-0.2,0.5-0.5s-0.2-0.5-0.5-0.5V7.7c0.3,0,0.5-0.2,0.5-0.5s-0.2-0.5-0.5-0.5V6.3c0.3,0,0.5-0.2,0.5-0.5s-0.2-0.5-0.5-0.5
		V4.6C-123.8,4.4-121.9,2.8-121.9,0.9L-121.9,0.9z M-127-4.1c0.3,0,0.6,0.3,0.6,0.6s-0.3,0.6-0.6,0.6s-0.6-0.3-0.6-0.6
		S-127.3-4.1-127-4.1L-127-4.1z M-130.6,0.9c0-1.2,1-2.1,2.3-2.6c0.9-0.1,1.4,0.3,1.4,0.3l0,0c0,0,0.5-0.4,1.5-0.3
		c1.3,0.4,2.3,1.4,2.3,2.6s-0.9,2.1-2.3,2.6c-0.9,0.1-1.5-0.3-1.5-0.3l0,0c0,0-0.5,0.4-1.4,0.3C-129.7,3.1-130.6,2.1-130.6,0.9
		L-130.6,0.9z"/>
</g>
<path id="Vector" class="st4" d="M46.3,15.5c-4.4,0-8-3.6-8-8s3.6-8,8-8s8,3.6,8,8S50.7,15.5,46.3,15.5z M46.3,0.6
	c-3.8,0-6.9,3.1-6.9,6.9s3.1,6.9,6.9,6.9s6.9-3.1,6.9-6.9S50.1,0.6,46.3,0.6z M44,3.5h-1.4v1.4H44V3.5z M41.8,6.8h-1.4v1.4h1.4V6.8z
	 M52.3,6.8h-1.4v1.4h1.4V6.8z M47,12.1h-1.4v1.4H47V12.1z M50.1,3.5h-1.4v1.4h1.4V3.5z M44,10.1h-1.4v1.4H44V10.1z M50.1,10.1h-1.4
	v1.4h1.4V10.1z M50,8.2V6.8h-3V1.5h-1.3v6.7H50z"/>
<path class="st0" d="M80.1,6.6c0,5.1,7.5,6.8,13.2,6.8c0.6,0,7.2,5.2,7.2,5.2s-3.4-5.5-2-5.9c3.7-1,5.6-3.7,5.6-6.2
	c0-3.9-5.4-7.1-12-7.1C85.5-0.5,80.1,2.7,80.1,6.6z"/>
<g>
	<path class="st1" d="M10.3-2.2C8.7,5,7.2,12.2,5.6,19.4C3.9,27.2,2.2,35,0.5,42.9C-1,49.8-2.5,56.8-4,63.7c-0.4,1.7-0.7,3.3-1.1,5
		c0,0,0,0.1,0,0.1c-0.8,0-1.6,0-2.5,0c0.3-1.5,0.7-3,1-4.6c1.3-5.9,2.5-11.8,3.8-17.7c1.3-6.1,2.6-12.2,3.9-18.3
		c1.3-6,2.6-12,3.9-18C5.9,6.2,6.8,2.1,7.7-2c0-0.1,0-0.1,0.1-0.2C8.6-2.2,9.4-2.2,10.3-2.2z"/>
	<path class="st1" d="M-57.3,29.2c0-8.8,0-17.5,0-26.3c0.1,0,0.2,0,0.2,0c3.8,0,7.6,0,11.3,0c1.3,0,2.5,0.1,3.7,0.5
		c2.3,0.8,3.4,2.5,3.6,4.9c0.1,1,0.1,2-0.2,3c-0.4,1.3-1.1,2.4-2.3,3.1c-0.2,0.1-0.4,0.3-0.6,0.4c0.1,0,0.1,0.1,0.2,0.1
		c2.3,0.8,3.5,2.6,4,4.9c0.3,1.3,0.3,2.6-0.1,3.9c-0.6,2-1.9,3.5-3.8,4.4c-1.2,0.6-2.4,0.9-3.8,0.9c-4,0-8.1,0-12.1,0
		C-57.2,29.2-57.3,29.2-57.3,29.2z M-52.1,24.7c1.1,0,2.1,0,3.1,0c1.4,0,2.8,0.1,4.2-0.2c0.8-0.2,1.4-0.5,1.7-1.3
		c0.5-1.1,0.5-2.2,0.2-3.3c-0.2-0.9-0.8-1.6-1.6-2c-0.7-0.3-1.4-0.4-2.1-0.4c-1.8,0-3.5,0-5.3,0c-0.1,0-0.2,0-0.3,0
		C-52.1,19.9-52.1,22.3-52.1,24.7z M-51.9,7.5c0,2.1,0,4.1,0,6.2c0.1,0,0.2,0,0.3,0c1.6,0,3.1,0,4.7,0c0.7,0,1.3-0.2,1.9-0.5
		c0.7-0.3,1.2-0.9,1.3-1.7c0.1-0.5,0.1-0.9,0.1-1.4c0-1.2-0.7-2.1-1.8-2.5c-0.5-0.2-1-0.2-1.5-0.2c-1.6,0-3.2,0-4.8,0
		C-51.7,7.5-51.7,7.5-51.9,7.5z"/>
	<path class="st1" d="M-23.9,29.3c-1.8,0-3.5,0-5.3,0c0-7.2,0-14.3,0-21.5c-2.4,0-4.7,0-7.1,0c0-1.6,0-3.3,0-4.9
		c6.5,0,12.9,0,19.4,0c0,1.6,0,3.2,0,4.9c-2.3,0-4.7,0-7.1,0C-23.9,15-23.9,22.1-23.9,29.3z"/>
	<path class="st1" d="M-16.5,42.8c0.2,0,0.5,0,0.7,0c0,0,0.1,0,0.1,0.1c0.3,0.8,1.4,1,2.1,0.7c0.8-0.2,1.1-0.7,1.2-1.6
		c0-0.3,0-0.5,0-0.8c0,0,0,0,0,0c-0.7,0.9-2,1.2-3,0.5c-0.9-0.6-1.2-1.4-1.3-2.4c0-0.4,0.1-0.9,0.2-1.3c0.3-1.3,1.9-2.1,3.3-1.5
		c0.3,0.1,0.5,0.4,0.7,0.6c0-0.2,0-0.4,0-0.7c0.3,0,0.6,0,0.9,0c0,0.1,0,0.1,0,0.2c0,1.7,0,3.5,0,5.2c0,0.3,0,0.7-0.1,1
		c-0.2,1-0.9,1.6-1.9,1.7c-0.8,0.1-1.5-0.1-2.2-0.4C-16.2,43.9-16.5,43.4-16.5,42.8z M-12.3,39.4c-0.1-0.6,0-1.2-0.5-1.6
		c-0.6-0.7-1.9-0.8-2.4-0.1c-0.8,1-0.7,2.5,0,3.4c0.6,0.7,2,0.7,2.5-0.1C-12.5,40.4-12.3,39.9-12.3,39.4z"/>
	<path class="st1" d="M-51,42.1C-51,42.1-51,42.1-51,42.1c-0.4,0-0.9,0.1-1.1,0c-0.2-0.1-0.3-0.6-0.4-0.9c-0.2-0.4-0.3-0.8-0.5-1.2
		c-0.1-0.2-0.1-0.2-0.3-0.2c-1,0-1.9,0-2.9,0c-0.2,0-0.2,0.1-0.3,0.2c-0.2,0.7-0.5,1.3-0.7,2c-0.1,0.2-0.1,0.2-0.3,0.2
		c-0.3,0-0.5,0-0.9,0c0-0.1,0.1-0.2,0.1-0.3c1-2.4,1.9-4.8,2.9-7.2c0.1-0.2,0.2-0.3,0.4-0.3c0.3,0,0.7-0.1,0.9,0.1
		c0.2,0.1,0.3,0.5,0.4,0.8c0.9,2.2,1.8,4.4,2.6,6.6C-51.1,41.9-51,42-51,42.1z M-53.3,39c-0.5-1.2-0.9-2.4-1.4-3.7
		c-0.5,1.3-0.9,2.5-1.3,3.7C-55.1,39-54.2,39-53.3,39z"/>
	<path class="st1" d="M-17.1,41.5c0,0.2,0,0.4,0,0.6c-1.1,0.3-1.5,0.2-1.7-0.7c-0.2,0.1-0.4,0.3-0.6,0.4c-0.8,0.5-1.7,0.6-2.6,0.1
		c-0.4-0.2-0.7-0.6-0.7-1.1c0-1.1,0.5-1.6,1.4-1.9c0.6-0.2,1.2-0.2,1.8-0.3c0.3,0,0.5-0.2,0.6-0.5c0.1-0.2,0.1-0.5-0.1-0.7
		c-0.2-0.2-0.4-0.3-0.7-0.3c-0.4,0-0.7,0.1-1.1,0.1c-0.4,0.1-0.6,0.3-0.6,0.7c0,0.1,0,0.2,0,0.2c-0.3,0-0.6,0-0.9,0
		c-0.1-0.8,0.5-1.6,1.3-1.8c0.7-0.2,1.4-0.1,2.2,0c0.7,0.1,1.1,0.7,1.1,1.4c0,1.1,0,2.1,0,3.2C-17.7,41.5-17.6,41.6-17.1,41.5z
		 M-18.8,39.4c-0.3,0-0.6,0.1-0.9,0.1c-0.5,0-1,0.1-1.5,0.4c-0.4,0.2-0.5,0.5-0.5,1c0,0.4,0.3,0.7,0.7,0.7c0.3,0,0.5,0,0.8,0
		c0.6,0,1.3-0.6,1.3-1.1C-18.8,40.1-18.8,39.7-18.8,39.4z"/>
	<path class="st1" d="M-45.3,42.4c-0.3,0-0.6,0-0.9,0c0-0.3,0-0.6,0-1c-0.8,1.1-1.9,1-3,0.7c-0.7-0.2-1.2-0.8-1.4-1.6
		c-0.3-0.8-0.2-1.6,0.1-2.3c0.3-0.8,1.1-1.5,2.1-1.5c0.3,0,0.6,0,1,0c0.5,0.1,0.9,0.3,1.2,0.7c0-1,0-1.9,0-2.8c0.3,0,0.6,0,0.9,0
		C-45.3,37.2-45.3,39.8-45.3,42.4z M-49.6,39.3C-49.7,39.3-49.7,39.3-49.6,39.3c0,0.4,0.1,0.8,0.3,1.2c0.3,0.7,1.1,1.1,1.9,0.9
		c0.4-0.1,0.8-0.3,1-0.6c0.3-0.5,0.5-1.1,0.4-1.8c-0.1-1.1-0.5-1.7-1.4-1.9c-0.7-0.2-1.4,0.1-1.7,0.6
		C-49.5,38.3-49.7,38.8-49.6,39.3z"/>
	<path class="st1" d="M-32.9,41.5c0,0.7,0.1,0.7-0.6,0.7c-0.5,0-0.7-0.2-0.9-0.8c-0.2,0.2-0.5,0.4-0.7,0.5c-0.6,0.4-1.8,0.5-2.5,0
		c-0.5-0.4-0.7-1-0.5-1.7c0.2-0.7,0.7-1.1,1.4-1.3c0.6-0.2,1.2-0.2,1.8-0.3c0.3,0,0.5-0.2,0.6-0.5c0.1-0.3,0.1-0.5-0.1-0.7
		c-0.2-0.2-0.4-0.3-0.7-0.3c-0.4,0-0.7,0.1-1.1,0.1c-0.4,0.1-0.6,0.3-0.6,0.7c0,0.1,0,0.2,0,0.2c-0.3,0-0.6,0-0.8,0
		c-0.1-0.8,0.5-1.6,1.3-1.8c0.7-0.2,1.4-0.1,2.1,0c0.7,0.1,1.1,0.7,1.2,1.5c0,0.9,0,1.8,0,2.7c0,0.1,0,0.2-0.1,0.2
		c-0.1,0.1-0.2,0.3-0.1,0.5C-33.4,41.6-33.2,41.5-32.9,41.5C-33,41.5-33,41.5-32.9,41.5z M-34.6,39.4c-0.3,0-0.6,0.1-0.9,0.1
		c-0.5,0-1,0.1-1.4,0.4c-0.4,0.2-0.5,0.5-0.5,0.9c0,0.3,0.3,0.7,0.6,0.7c0.3,0,0.7,0,1,0c0.6-0.1,1.3-0.7,1.3-1.4
		C-34.7,39.9-34.6,39.7-34.6,39.4z"/>
	<path class="st1" d="M-4.8,39.8c-1.5,0-2.9,0-4.3,0c0,1.2,0.7,1.9,1.9,1.9c0.6,0,1.1-0.3,1.4-0.9c0-0.1,0.1-0.2,0.2-0.2
		c0.2,0,0.4,0,0.7,0.1c-0.2,0.3-0.4,0.7-0.7,0.9c-0.8,0.9-2.9,1-3.8-0.1c-0.7-0.8-0.9-1.8-0.7-2.8c0.1-0.7,0.4-1.3,1-1.7
		c0.5-0.4,1.2-0.6,1.8-0.5c1.2,0.1,2,0.7,2.3,1.8c0.1,0.3,0.1,0.5,0.2,0.8C-4.8,39.4-4.8,39.6-4.8,39.8z M-5.8,38.7
		c-0.3-0.4-0.3-1-0.8-1.3c-0.5-0.3-1-0.3-1.5-0.1c-0.7,0.2-1,0.7-1,1.4C-8,38.7-6.9,38.7-5.8,38.7z"/>
	<path class="st1" d="M-45.2,60.8c-0.6,0-1.2,0-1.7,0c-0.1,0-0.2,0-0.3,0c-0.1-0.4-0.6-0.7-0.9-0.4c-0.2,0.1-0.2,0.4,0,0.6
		c0.2,0.1,0.4,0.1,0.5,0.2c0.3,0.1,0.6,0.1,0.9,0.2c0.6,0.2,1,0.6,1.1,1.2c-0.8,0.1-1.7,0.3-2.5,0.3c-0.7,0-1.4-0.3-2-0.8
		c-0.6-0.6-0.6-1.7,0.1-2.3c0.4-0.4,0.9-0.6,1.5-0.7c0.8-0.1,1.5-0.2,2.3,0.1c0.5,0.2,0.8,0.6,0.9,1.1
		C-45.2,60.5-45.2,60.7-45.2,60.8z"/>
	<path class="st1" d="M-29.2,63.3c0,0.1,0,0.1,0,0.1c0,0.2,0,0.5,0.2,0.6c0.2,0.1,0.5,0,0.7-0.3c0,0,0.1-0.1,0.2-0.1
		c0.5,0,1,0,1.6,0c-0.2,0.2-0.3,0.4-0.4,0.6c-0.8,0.7-2.5,0.9-3.4,0.4c-0.7-0.4-0.9-1.1-0.6-2c0.3-1,1.3-1.8,2.5-1.9
		c0.3,0,0.5,0,0.8,0.1c1.2,0.3,1.5,1.4,1.3,2.2c0,0.2-0.1,0.2-0.3,0.2c-0.8,0-1.5,0-2.3,0C-29,63.3-29.1,63.3-29.2,63.3z M-29,62.5
		C-29,62.5-29,62.5-29,62.5c0.3,0,0.5,0,0.7,0c0.1,0,0.2-0.1,0.3-0.2c-0.1-0.1-0.1-0.3-0.3-0.3C-28.7,61.8-29,62.1-29,62.5z"/>
	<path class="st1" d="M-31.9,36.6c0.3,0,0.6,0,0.9,0c0,0.2-0.1,0.4-0.1,0.6c0.5-0.7,1.3-0.9,2.1-0.8c0.5,0.1,1,0.2,1.3,0.7
		c0.2,0.3,0.3,0.6,0.3,1c0,1.4,0,2.7,0,4.1c-0.3,0-0.6,0-0.9,0c0-0.1,0-0.2,0-0.3c0-1.1,0-2.2,0-3.3c0-0.7-0.2-1.1-0.8-1.2
		c-0.7-0.2-1.3,0.1-1.6,0.6c-0.2,0.4-0.3,0.8-0.3,1.2c0,0.9,0,1.9,0,2.8c0,0.1,0,0.2,0,0.3c-0.3,0-0.6,0-0.9,0
		C-31.9,40.4-31.9,38.5-31.9,36.6z"/>
	<path class="st1" d="M-35,61.8c0,0.1,0.1,0.2,0.1,0.3c0,1-0.3,1.9-1.1,2.6c-0.3,0.3-0.7,0.4-1.1,0.4c-0.4,0-0.8-0.1-1-0.5
		c0,0,0,0-0.1,0c-0.1,0.4-0.3,0.4-0.7,0.4c-0.4,0-0.8,0-1.2,0c0.1-0.6,0.2-1.1,0.4-1.7c0.1-0.7,0.2-0.7,0.8-0.8
		c0.4-0.1,0.9-0.1,1.3-0.2c0,0,0,0,0,0c-0.1,0.4-0.2,0.8-0.3,1.3c0,0.2,0,0.4,0.2,0.5c0.2,0.1,0.4-0.1,0.5-0.3
		c0.3-0.5,0.4-1,0.3-1.6C-36.2,62-35.6,61.9-35,61.8z"/>
	<path class="st1" d="M-44.3,36.4c0.3,0,0.6,0,0.9,0c0.1,0,0.2,0.1,0.2,0.2c0.5,1.4,0.9,2.7,1.4,4.1c0,0.1,0.1,0.2,0.1,0.4
		c0.3-0.8,0.5-1.5,0.7-2.1c0.3-0.8,0.5-1.5,0.8-2.3c0.1-0.2,0.1-0.2,0.3-0.2c0.2,0,0.5,0,0.8,0c0,0.1,0,0.2-0.1,0.3
		c-0.6,1.7-1.3,3.5-1.9,5.2c-0.1,0.2-0.2,0.3-0.4,0.3c-0.7,0-0.7,0-1-0.7c-0.6-1.5-1.2-3.1-1.7-4.6C-44.2,36.7-44.2,36.6-44.3,36.4z
		"/>
	<path class="st1" d="M-25.5,34.8c0.3,0,0.6,0,0.9,0c0,0.6,0,1.1,0,1.7c0.4,0,0.7,0,1.1,0c0,0.3,0,0.5,0,0.8c-0.3,0-0.6,0-1,0
		c0,0.1,0,0.2,0,0.3c0,1.1,0,2.2,0,3.4c0,0.3,0.1,0.5,0.5,0.5c0.2,0,0.4,0,0.6,0c0,0.3,0,0.5,0,0.8c-0.5,0-1,0-1.5,0
		c-0.2,0-0.4-0.3-0.5-0.5c-0.1-0.3-0.1-0.6-0.1-0.9c0-1,0-2,0-3c0-0.1,0-0.2,0-0.4c-0.3,0-0.7,0-1,0c0-0.3,0-0.5,0-0.8
		c0.3,0,0.6,0,1,0C-25.5,36-25.5,35.4-25.5,34.8z"/>
	<path class="st1" d="M-33.2,61.3c-0.3,0-0.6,0.1-0.9,0.1c0-0.5,0-0.5,0.4-0.5c0.5,0,0.9,0,1.4,0c0,0.1,0,0.2,0,0.4
		c0.2-0.1,0.3-0.2,0.4-0.3c0.2-0.1,0.3-0.1,0.5-0.2c0.4,0,0.4,0,0.3,0.4c-0.1,0.4-0.2,0.8-0.2,1.2c-0.6-0.2-1.1,0-1.3,0.6
		c-0.2,0.5-0.2,1-0.4,1.5c0,0.1-0.1,0.2-0.1,0.4c-0.6,0-1.3,0-1.9,0c0.2-0.8,0.3-1.6,0.5-2.3c0.1-0.3,0.1-0.7,0.2-0.9
		c0.2-0.2,0.6-0.2,0.8-0.2C-33.2,61.4-33.2,61.4-33.2,61.3C-33.1,61.4-33.1,61.4-33.2,61.3z"/>
	<path class="st1" d="M-40.7,65c-0.6,0-1.2,0-1.8,0c0-0.1,0-0.2-0.1-0.3c-0.5,0.4-1,0.5-1.6,0.4c-0.7-0.1-1.2-0.8-1-1.5
		c0-0.1,0.1-0.2,0.2-0.2c1.5-0.3,3.1-0.5,4.6-0.8c0,0,0,0,0.1,0C-40.4,63.5-40.6,64.2-40.7,65z M-42.3,63.4c-0.5,0-0.7,0-0.9,0.2
		c-0.1,0.1-0.1,0.3-0.1,0.4c0.1,0.1,0.2,0.2,0.4,0.2C-42.6,64.1-42.4,63.8-42.3,63.4z"/>
	<path class="st1" d="M-39.7,62c0.2-0.9,0.5-1.8,0.7-2.6c0-0.1,0.1-0.1,0.1-0.1c0.6,0,1.2,0,1.8,0c-0.1,0.7-0.3,1.3-0.4,2
		c1.2-0.5,1.9-0.4,2.3,0.3C-36.7,61.7-38.2,61.9-39.7,62z"/>
	<path class="st1" d="M-45.6,63.5c-0.1,0.5-0.4,0.9-0.9,1.1c-0.7,0.4-1.5,0.5-2.4,0.5c-0.4,0-0.9-0.1-1.3-0.3
		c-0.7-0.3-1-0.8-0.8-1.6c0.7,0,1.4,0,2.2,0c-0.1,0.2-0.1,0.5-0.2,0.8C-47.8,63.9-46.7,63.7-45.6,63.5z"/>
	<path class="st1" d="M-42.2,62.2c0-0.1,0-0.1,0-0.2c0-0.1,0-0.2,0-0.2c-0.1,0-0.3-0.1-0.4-0.1c-0.1,0-0.3,0.1-0.3,0.3
		c-0.1,0.2-0.2,0.2-0.4,0.2c-0.5,0-1,0-1.5,0c0-0.3,0.2-0.6,0.4-0.8c0.3-0.3,0.7-0.5,1.2-0.6c0.7-0.1,1.3-0.1,1.9,0.1
		c0.5,0.2,0.8,0.5,0.9,1.1C-41,62.1-41.6,62.2-42.2,62.2z"/>
	<path class="st1" d="M-57.5,60.4c0.2,0,0.3,0,0.5,0c0,0.5,0,1,0,1.5c0.2,0,0.4,0,0.5,0c0.7,0,1.2,0.3,1.3,1.1
		c0.1,0.3,0.1,0.6,0.1,0.9c0,0.7-0.5,1.2-1.2,1.2c-0.1,0-0.2,0-0.3,0c-0.9,0-1-0.1-1-1c0-1.1,0-2.3,0-3.4
		C-57.5,60.7-57.5,60.6-57.5,60.4z M-56.9,63.4c0,0.3,0,0.7,0,1c0,0.1,0.1,0.2,0.1,0.2c0.5,0.2,1-0.1,1.2-0.5
		c0.1-0.4,0.2-0.9,0.1-1.3c-0.1-0.5-0.5-0.8-1.1-0.7c-0.2,0-0.3,0.1-0.3,0.3C-56.8,62.8-56.9,63.1-56.9,63.4z"/>
	<path class="st1" d="M-54.2,66.3c0.1-0.3,0.3-0.7,0.4-1c0-0.1,0.1-0.3,0-0.5c-0.3-0.9-0.6-1.7-0.9-2.6c0-0.1-0.1-0.2-0.1-0.3
		c0,0,0.1,0,0.1,0c0.5,0,0.5,0,0.6,0.5c0.2,0.7,0.4,1.4,0.7,2.2c0.3-0.8,0.5-1.5,0.7-2.2c0.1-0.4,0.1-0.4,0.6-0.3c-0.3,1-0.7,2-1,3
		c-0.1,0.3-0.2,0.7-0.4,1C-53.6,66.4-53.6,66.4-54.2,66.3z"/>
	<path class="st1" d="M6,53.6c0-0.4,0-0.7,0-1.1c0.2-1.2,1.1-2.2,2.4-2.2c1.1,0,2.2,0,3.2,0c1.4,0,2.4,1.2,2.5,2.5
		c0,0.2,0,0.5,0,0.7c0.2,0,0.4,0,0.6,0c0,3.9,0,7.7,0,11.6c-3.1,0-6.2,0-9.3,0c0-3.8,0-7.7,0-11.6C5.6,53.6,5.8,53.6,6,53.6z
		 M12.5,54.5c-0.3,0-0.6,0-0.9,0c-0.2,0-0.5,0.1-0.6,0.2c-0.9,0.8-1.7,1.7-2.6,2.5c-0.2,0.2-0.2,0.4,0,0.6c0.7,0.6,1.3,1.3,2,1.9
		c0.3,0.3,0.4,0.3,0.6,0c0.9-0.8,1.7-1.7,2.6-2.5c0.2-0.2,0.3-0.4,0.3-0.7c0-0.6,0-1.1,0-1.7c0-0.3-0.1-0.4-0.4-0.4
		C13.1,54.5,12.8,54.5,12.5,54.5z M12.3,53.6c0-0.3,0-0.5,0-0.7c0-0.5-0.3-0.9-0.8-0.9c-1,0-2,0-3,0c-0.4,0-0.8,0.3-0.8,0.7
		c0,0.3,0,0.6,0,0.9C9.2,53.6,10.7,53.6,12.3,53.6z"/>
	<path class="st1" d="M4.5,53.5c0,3.9,0,7.8,0,11.6c-1.3,0.3-2.6-0.8-2.6-2.1c0-1.4,0-2.9,0-4.3c0-0.9,0-1.9,0-2.8
		C1.9,54.5,3,53.4,4.5,53.5z"/>
	<path class="st1" d="M15.5,53.7c1.5-0.1,2.6,0.9,2.6,2.4c0,2.3,0,4.6,0,6.9c0,1.4-1.2,2.5-2.6,2.3C15.5,61.5,15.5,57.6,15.5,53.7z"
		/>
	<path class="st1" d="M12.6,55c0.3,0,0.6,0.3,0.6,0.6c0,0.3-0.3,0.6-0.6,0.6c-0.3,0-0.6-0.3-0.6-0.6C12,55.3,12.3,55,12.6,55z"/>
</g>
</svg>
